<svg id="_24px_2_" data-name="24px (2)" xmlns="http://www.w3.org/2000/svg" width="216" height="216" viewBox="0 0 216 216">
  <path id="Path_205" data-name="Path 205" d="M55.909,82.018H38.273V99.8H55.909Zm35.273,0H73.546V99.8H91.182Zm35.273,0H108.819V99.8h17.636Zm17.636-62.237h-8.818V2H117.637V19.782H47.091V2H29.455V19.782H20.636A17.63,17.63,0,0,0,3.088,37.564L3,162.037a17.7,17.7,0,0,0,17.636,17.782H144.092a17.762,17.762,0,0,0,17.636-17.782V37.564A17.762,17.762,0,0,0,144.092,19.782Zm0,142.255H20.636v-97.8H144.092Z" transform="translate(25.636 17.091)" fill="#b13a65"/>
  <path id="Path_206" data-name="Path 206" d="M0,0H216V216H0Z" fill="none"/>
</svg>
