<svg id="_24px_1_" data-name="24px (1)" xmlns="http://www.w3.org/2000/svg" width="216" height="216" viewBox="0 0 216 216">
  <path id="Path_203" data-name="Path 203" d="M0,0H216V216H0Z" fill="none"/>
  <path id="Path_204" data-name="Path 204" d="M181.394,21.58H134.789C130.106,9.643,117.841,1,103.347,1S76.588,9.643,71.9,21.58H25.3C13.035,21.58,3,30.84,3,42.159V186.216c0,11.319,10.035,20.58,22.3,20.58H181.394c12.265,0,22.3-9.261,22.3-20.58V42.159C203.693,30.84,193.659,21.58,181.394,21.58Zm-78.047,0c6.132,0,11.15,4.63,11.15,10.29s-5.017,10.29-11.15,10.29S92.2,37.529,92.2,31.869,97.214,21.58,103.347,21.58Zm-22.3,144.057-44.6-41.159L52.17,109.969l28.878,26.548,73.476-67.81,15.721,14.611Z" transform="translate(4.653 1.551)" fill="#b13a65"/>
</svg>
